# xmcd
#
# Track frame offsets:
#	150
#	11730
#	23570
#	36723
#	48483
#	59625
#	73088
#	85548
#	97575
#	115178
#	124355
#	139100
#	149858
#	158550
#	176415
#	191095
#
# Disc length: 2685 seconds
#
# Revision: 0
# Processed by: cddbd v1.5.2PL0 Copyright (c) Steve Scherf et al.
# Submitted via: EasyCDDAExtractor 10.2.0.1
#
DISCID=e40a7b10
DTITLE=The Good Shepherd Quartet - Past And Present
DYEAR=1991
DGENRE=Gospel
TTITLE0=Pay Me A Visit
TTITLE1=I Will Lay My Burdens Down
TTITLE2=I Want To Go Home
TTITLE3=I'm Proud Of Salvation
TTITLE4=I Thank Thee For Them All
TTITLE5=Hiding From The Storms Outside
TTITLE6=You'd Better Be Somewhere Praying
TTITLE7=Go Right Out
TTITLE8=The Cabin On The Hill
TTITLE9=Mothers Bible
TTITLE10=Take Your Hap From The Willow
TTITLE11=This Life
TTITLE12=Working For A Robe And Crown
TTITLE13=Let Me Die Easy, Lord
TTITLE14=Rest At The End Of The Trail
TTITLE15=Come On Dear Lord And Get Me
EXTD=
EXTT0=
EXTT1=
EXTT2=
EXTT3=
EXTT4=
EXTT5=
EXTT6=
EXTT7=
EXTT8=
EXTT9=
EXTT10=
EXTT11=
EXTT12=
EXTT13=
EXTT14=
EXTT15=
PLAYORDER=
